<mxfile host="app.diagrams.net" agent="Mozilla/5.0 (Windows NT 10.0; Win64; x64) AppleWebKit/537.36 (KHTML, like Gecko) Chrome/132.0.0.0 Safari/537.36" version="26.0.14">
  <diagram name="Page-1" id="g7zZnbl1W7cNPRCEWcFp">
    <mxGraphModel dx="795" dy="533" grid="1" gridSize="10" guides="1" tooltips="1" connect="1" arrows="1" fold="1" page="1" pageScale="1" pageWidth="1100" pageHeight="850" math="0" shadow="0">
      <root>
        <mxCell id="0" />
        <mxCell id="1" parent="0" />
        <mxCell id="HxWZ2wKawwLo5RB6utb6-7" value="" style="edgeStyle=orthogonalEdgeStyle;rounded=0;orthogonalLoop=1;jettySize=auto;html=1;" edge="1" parent="1" source="HxWZ2wKawwLo5RB6utb6-1" target="HxWZ2wKawwLo5RB6utb6-6">
          <mxGeometry relative="1" as="geometry" />
        </mxCell>
        <mxCell id="HxWZ2wKawwLo5RB6utb6-8" value="request.valid &amp;amp;&amp;amp; this.ready" style="edgeLabel;html=1;align=center;verticalAlign=middle;resizable=0;points=[];" vertex="1" connectable="0" parent="HxWZ2wKawwLo5RB6utb6-7">
          <mxGeometry x="-0.0853" y="1" relative="1" as="geometry">
            <mxPoint x="-1" y="-8" as="offset" />
          </mxGeometry>
        </mxCell>
        <mxCell id="HxWZ2wKawwLo5RB6utb6-1" value="IDEL" style="rounded=0;whiteSpace=wrap;html=1;" vertex="1" parent="1">
          <mxGeometry x="280" y="180" width="80" height="40" as="geometry" />
        </mxCell>
        <mxCell id="HxWZ2wKawwLo5RB6utb6-5" value="" style="edgeStyle=orthogonalEdgeStyle;rounded=0;orthogonalLoop=1;jettySize=auto;html=1;" edge="1" parent="1" source="HxWZ2wKawwLo5RB6utb6-4" target="HxWZ2wKawwLo5RB6utb6-1">
          <mxGeometry relative="1" as="geometry" />
        </mxCell>
        <mxCell id="HxWZ2wKawwLo5RB6utb6-4" value="RESET" style="rounded=1;whiteSpace=wrap;html=1;" vertex="1" parent="1">
          <mxGeometry x="280" y="100" width="80" height="40" as="geometry" />
        </mxCell>
        <mxCell id="HxWZ2wKawwLo5RB6utb6-29" style="edgeStyle=orthogonalEdgeStyle;rounded=0;orthogonalLoop=1;jettySize=auto;html=1;" edge="1" parent="1" source="HxWZ2wKawwLo5RB6utb6-6" target="HxWZ2wKawwLo5RB6utb6-28">
          <mxGeometry relative="1" as="geometry" />
        </mxCell>
        <mxCell id="HxWZ2wKawwLo5RB6utb6-30" value="no way hit" style="edgeLabel;html=1;align=center;verticalAlign=middle;resizable=0;points=[];" vertex="1" connectable="0" parent="HxWZ2wKawwLo5RB6utb6-29">
          <mxGeometry x="0.4319" relative="1" as="geometry">
            <mxPoint x="10" y="-43" as="offset" />
          </mxGeometry>
        </mxCell>
        <mxCell id="HxWZ2wKawwLo5RB6utb6-31" value="replace line is dirty" style="edgeLabel;html=1;align=center;verticalAlign=middle;resizable=0;points=[];" vertex="1" connectable="0" parent="HxWZ2wKawwLo5RB6utb6-29">
          <mxGeometry x="0.5526" y="1" relative="1" as="geometry">
            <mxPoint y="-6" as="offset" />
          </mxGeometry>
        </mxCell>
        <mxCell id="HxWZ2wKawwLo5RB6utb6-34" style="edgeStyle=orthogonalEdgeStyle;rounded=0;orthogonalLoop=1;jettySize=auto;html=1;entryX=0.75;entryY=0;entryDx=0;entryDy=0;" edge="1" parent="1" source="HxWZ2wKawwLo5RB6utb6-6" target="HxWZ2wKawwLo5RB6utb6-32">
          <mxGeometry relative="1" as="geometry">
            <Array as="points">
              <mxPoint x="320" y="370" />
              <mxPoint x="420" y="370" />
              <mxPoint x="420" y="480" />
              <mxPoint x="340" y="480" />
            </Array>
          </mxGeometry>
        </mxCell>
        <mxCell id="HxWZ2wKawwLo5RB6utb6-35" value="&lt;span style=&quot;color: rgba(0, 0, 0, 0); font-family: monospace; font-size: 0px; text-align: start; background-color: rgb(251, 251, 251);&quot;&gt;%3CmxGraphModel%3E%3Croot%3E%3CmxCell%20id%3D%220%22%2F%3E%3CmxCell%20id%3D%221%22%20parent%3D%220%22%2F%3E%3CmxCell%20id%3D%222%22%20value%3D%22replace%20line%20is%20dirty%22%20style%3D%22edgeLabel%3Bhtml%3D1%3Balign%3Dcenter%3BverticalAlign%3Dmiddle%3Bresizable%3D0%3Bpoints%3D%5B%5D%3B%22%20vertex%3D%221%22%20connectable%3D%220%22%20parent%3D%221%22%3E%3CmxGeometry%20x%3D%22321%22%20y%3D%22389.8620689655172%22%20as%3D%22geometry%22%2F%3E%3C%2FmxCell%3E%3C%2Froot%3E%3C%2FmxGraphModel%3E&lt;/span&gt;" style="edgeLabel;html=1;align=center;verticalAlign=middle;resizable=0;points=[];" vertex="1" connectable="0" parent="HxWZ2wKawwLo5RB6utb6-34">
          <mxGeometry x="-0.4279" relative="1" as="geometry">
            <mxPoint as="offset" />
          </mxGeometry>
        </mxCell>
        <mxCell id="HxWZ2wKawwLo5RB6utb6-36" value="replace line not dirty" style="edgeLabel;html=1;align=center;verticalAlign=middle;resizable=0;points=[];" vertex="1" connectable="0" parent="HxWZ2wKawwLo5RB6utb6-34">
          <mxGeometry x="-0.4087" relative="1" as="geometry">
            <mxPoint x="45" y="40" as="offset" />
          </mxGeometry>
        </mxCell>
        <mxCell id="HxWZ2wKawwLo5RB6utb6-6" value="LOOKUP" style="rounded=0;whiteSpace=wrap;html=1;verticalAlign=top;" vertex="1" parent="1">
          <mxGeometry x="280" y="280" width="80" height="50" as="geometry" />
        </mxCell>
        <mxCell id="HxWZ2wKawwLo5RB6utb6-18" value="" style="edgeStyle=orthogonalEdgeStyle;rounded=0;orthogonalLoop=1;jettySize=auto;html=1;exitX=0.25;exitY=1;exitDx=0;exitDy=0;" edge="1" parent="1" source="HxWZ2wKawwLo5RB6utb6-6">
          <mxGeometry relative="1" as="geometry">
            <mxPoint x="320" y="440.0000000000001" as="sourcePoint" />
            <mxPoint x="300" y="180" as="targetPoint" />
            <Array as="points">
              <mxPoint x="300" y="350" />
              <mxPoint x="220" y="350" />
              <mxPoint x="220" y="160" />
              <mxPoint x="300" y="160" />
            </Array>
          </mxGeometry>
        </mxCell>
        <mxCell id="HxWZ2wKawwLo5RB6utb6-61" value="some way hit" style="edgeLabel;html=1;align=center;verticalAlign=middle;resizable=0;points=[];" vertex="1" connectable="0" parent="HxWZ2wKawwLo5RB6utb6-18">
          <mxGeometry x="-0.6673" y="-1" relative="1" as="geometry">
            <mxPoint x="3" y="-9" as="offset" />
          </mxGeometry>
        </mxCell>
        <mxCell id="HxWZ2wKawwLo5RB6utb6-33" value="" style="edgeStyle=orthogonalEdgeStyle;rounded=0;orthogonalLoop=1;jettySize=auto;html=1;" edge="1" parent="1" source="HxWZ2wKawwLo5RB6utb6-28" target="HxWZ2wKawwLo5RB6utb6-32">
          <mxGeometry relative="1" as="geometry" />
        </mxCell>
        <mxCell id="HxWZ2wKawwLo5RB6utb6-28" value="WRITE BACK" style="rounded=0;whiteSpace=wrap;html=1;" vertex="1" parent="1">
          <mxGeometry x="280" y="417.93" width="80" height="40" as="geometry" />
        </mxCell>
        <mxCell id="HxWZ2wKawwLo5RB6utb6-43" style="edgeStyle=orthogonalEdgeStyle;rounded=0;orthogonalLoop=1;jettySize=auto;html=1;entryX=0.75;entryY=0;entryDx=0;entryDy=0;" edge="1" parent="1" source="HxWZ2wKawwLo5RB6utb6-32" target="HxWZ2wKawwLo5RB6utb6-6">
          <mxGeometry relative="1" as="geometry">
            <Array as="points">
              <mxPoint x="320" y="560" />
              <mxPoint x="480" y="560" />
              <mxPoint x="480" y="260" />
              <mxPoint x="340" y="260" />
            </Array>
          </mxGeometry>
        </mxCell>
        <mxCell id="HxWZ2wKawwLo5RB6utb6-44" value="is write request" style="edgeLabel;html=1;align=center;verticalAlign=middle;resizable=0;points=[];" vertex="1" connectable="0" parent="HxWZ2wKawwLo5RB6utb6-43">
          <mxGeometry x="0.749" y="1" relative="1" as="geometry">
            <mxPoint x="9" y="-1" as="offset" />
          </mxGeometry>
        </mxCell>
        <mxCell id="HxWZ2wKawwLo5RB6utb6-45" style="edgeStyle=orthogonalEdgeStyle;rounded=0;orthogonalLoop=1;jettySize=auto;html=1;entryX=0.75;entryY=0;entryDx=0;entryDy=0;" edge="1" parent="1" source="HxWZ2wKawwLo5RB6utb6-32" target="HxWZ2wKawwLo5RB6utb6-1">
          <mxGeometry relative="1" as="geometry">
            <mxPoint x="450" y="160" as="targetPoint" />
            <Array as="points">
              <mxPoint x="320" y="560" />
              <mxPoint x="480" y="560" />
              <mxPoint x="480" y="160" />
              <mxPoint x="340" y="160" />
            </Array>
          </mxGeometry>
        </mxCell>
        <mxCell id="HxWZ2wKawwLo5RB6utb6-47" value="not write request" style="edgeLabel;html=1;align=center;verticalAlign=middle;resizable=0;points=[];" vertex="1" connectable="0" parent="HxWZ2wKawwLo5RB6utb6-45">
          <mxGeometry x="0.3979" y="-1" relative="1" as="geometry">
            <mxPoint as="offset" />
          </mxGeometry>
        </mxCell>
        <mxCell id="HxWZ2wKawwLo5RB6utb6-32" value="READ" style="rounded=0;whiteSpace=wrap;html=1;" vertex="1" parent="1">
          <mxGeometry x="280" y="497.93" width="80" height="40" as="geometry" />
        </mxCell>
        <mxCell id="HxWZ2wKawwLo5RB6utb6-50" value="" style="endArrow=classic;html=1;rounded=0;" edge="1" parent="1">
          <mxGeometry width="50" height="50" relative="1" as="geometry">
            <mxPoint x="220" y="280" as="sourcePoint" />
            <mxPoint x="110" y="280" as="targetPoint" />
          </mxGeometry>
        </mxCell>
        <mxCell id="HxWZ2wKawwLo5RB6utb6-60" value="not write request" style="edgeLabel;html=1;align=center;verticalAlign=middle;resizable=0;points=[];" vertex="1" connectable="0" parent="HxWZ2wKawwLo5RB6utb6-50">
          <mxGeometry x="0.2796" y="-1" relative="1" as="geometry">
            <mxPoint x="20" y="-9" as="offset" />
          </mxGeometry>
        </mxCell>
        <mxCell id="HxWZ2wKawwLo5RB6utb6-55" value="&lt;span style=&quot;font-size: 11px; background-color: rgb(255, 255, 255);&quot;&gt;output =&amp;gt;&lt;/span&gt;&lt;div style=&quot;font-size: 11px;&quot;&gt;respond.valid&lt;div&gt;read_data&lt;br&gt;&lt;/div&gt;&lt;div&gt;&lt;span style=&quot;background-color: rgb(255, 255, 255);&quot;&gt;this.ready = 1&lt;/span&gt;&lt;/div&gt;&lt;/div&gt;" style="text;html=1;align=left;verticalAlign=middle;resizable=0;points=[];autosize=1;strokeColor=none;fillColor=none;" vertex="1" parent="1">
          <mxGeometry x="40" y="250" width="90" height="70" as="geometry" />
        </mxCell>
        <mxCell id="HxWZ2wKawwLo5RB6utb6-56" value="&lt;span style=&quot;font-size: 11px; background-color: rgb(255, 255, 255);&quot;&gt;when receive target&amp;nbsp;&lt;/span&gt;&lt;span style=&quot;background-color: light-dark(rgb(255, 255, 255), rgb(18, 18, 18)); font-size: 11px; color: light-dark(rgb(0, 0, 0), rgb(255, 255, 255));&quot;&gt;data from AXI&lt;/span&gt;&lt;div&gt;&lt;div&gt;&lt;span style=&quot;font-size: 11px;&quot;&gt;output =&amp;gt;&lt;br&gt;&lt;/span&gt;&lt;div style=&quot;font-size: 11px;&quot;&gt;respond.valid&lt;div&gt;read_data&lt;/div&gt;&lt;div&gt;&lt;span style=&quot;background-color: rgb(255, 255, 255);&quot;&gt;this.ready = 1&lt;/span&gt;&lt;/div&gt;&lt;/div&gt;&lt;/div&gt;&lt;/div&gt;" style="text;html=1;align=left;verticalAlign=middle;resizable=0;points=[];autosize=1;strokeColor=none;fillColor=none;" vertex="1" parent="1">
          <mxGeometry x="90" y="505" width="190" height="80" as="geometry" />
        </mxCell>
        <mxCell id="HxWZ2wKawwLo5RB6utb6-58" value="" style="endArrow=classic;html=1;rounded=0;" edge="1" parent="1">
          <mxGeometry width="50" height="50" relative="1" as="geometry">
            <mxPoint x="320" y="560" as="sourcePoint" />
            <mxPoint x="190" y="560" as="targetPoint" />
          </mxGeometry>
        </mxCell>
        <mxCell id="HxWZ2wKawwLo5RB6utb6-59" value="not write request" style="edgeLabel;html=1;align=center;verticalAlign=middle;resizable=0;points=[];" vertex="1" connectable="0" parent="HxWZ2wKawwLo5RB6utb6-58">
          <mxGeometry x="0.269" y="1" relative="1" as="geometry">
            <mxPoint x="23" y="9" as="offset" />
          </mxGeometry>
        </mxCell>
        <mxCell id="HxWZ2wKawwLo5RB6utb6-62" value="" style="endArrow=classic;html=1;rounded=0;" edge="1" parent="1">
          <mxGeometry width="50" height="50" relative="1" as="geometry">
            <mxPoint x="220" y="220" as="sourcePoint" />
            <mxPoint x="110" y="220" as="targetPoint" />
          </mxGeometry>
        </mxCell>
        <mxCell id="HxWZ2wKawwLo5RB6utb6-63" value="is write request" style="edgeLabel;html=1;align=center;verticalAlign=middle;resizable=0;points=[];" vertex="1" connectable="0" parent="HxWZ2wKawwLo5RB6utb6-62">
          <mxGeometry x="0.2796" y="-1" relative="1" as="geometry">
            <mxPoint x="20" y="-9" as="offset" />
          </mxGeometry>
        </mxCell>
        <mxCell id="HxWZ2wKawwLo5RB6utb6-64" value="&lt;span style=&quot;font-size: 11px; background-color: rgb(255, 255, 255);&quot;&gt;write data to cache&lt;/span&gt;&lt;div&gt;&lt;span style=&quot;font-size: 11px; background-color: rgb(255, 255, 255);&quot;&gt;this.ready = 1&lt;/span&gt;&lt;/div&gt;" style="text;html=1;align=left;verticalAlign=middle;resizable=0;points=[];autosize=1;strokeColor=none;fillColor=none;" vertex="1" parent="1">
          <mxGeometry x="10" y="195" width="120" height="40" as="geometry" />
        </mxCell>
        <mxCell id="HxWZ2wKawwLo5RB6utb6-65" value="&lt;div style=&quot;text-align: left;&quot;&gt;&lt;span style=&quot;color: light-dark(rgb(0, 0, 0), rgb(255, 255, 255)); font-size: 11px; background-color: rgb(255, 255, 255);&quot;&gt;(&lt;/span&gt;&lt;span style=&quot;background-color: rgb(255, 255, 255); font-size: 11px; color: light-dark(rgb(0, 0, 0), rgb(255, 255, 255));&quot;&gt;this.ready = 0&lt;/span&gt;&lt;span style=&quot;background-color: rgb(255, 255, 255); color: light-dark(rgb(0, 0, 0), rgb(255, 255, 255)); font-size: 11px;&quot;&gt;)&lt;/span&gt;&lt;/div&gt;" style="text;html=1;align=center;verticalAlign=middle;resizable=0;points=[];autosize=1;strokeColor=none;fillColor=none;" vertex="1" parent="1">
          <mxGeometry x="270" y="300" width="100" height="30" as="geometry" />
        </mxCell>
      </root>
    </mxGraphModel>
  </diagram>
</mxfile>
